<svg id="Layer_1" data-name="Layer 1" xmlns="http://www.w3.org/2000/svg" viewBox="0 0 314.53 75.16"><defs><style>.cls-1{fill:#53555f;}.cls-2{fill:#fdb809;}</style></defs><title>full-logo-no-background</title><path class="cls-1" d="M72.36,25.3c-8.71,0-14.31,3.62-17.21,8.19a3.18,3.18,0,0,0-.52,1.76,3,3,0,0,0,3,3,3.39,3.39,0,0,0,2.7-1.45c3.21-3.63,6.53-5.28,12-5.28,7.57,0,12.23,4.35,12.23,11.4v2.8H70c-11.2,0-18.15,5.49-18.15,14.62,0,9.53,7,14.82,17.94,14.82C76,75.16,82,72.57,84.59,67.7v3.73a3.22,3.22,0,0,0,6.43,0V42.92C91,32.34,84.39,25.3,72.36,25.3ZM84.59,55.88c0,8.81-6.94,13.27-14.2,13.27-8.08,0-11.82-3.42-11.82-8.81,0-6,4.67-8.82,11.41-8.82H84.59Z"/><path class="cls-1" d="M38.25,0a3.27,3.27,0,0,0-3.31,3.32V32a17.6,17.6,0,0,0-14.1-6.73C7.46,25.3,0,33.17,0,50.18s7.88,25,21.25,25c11.82,0,20.32-6.74,20.32-20.42V3.32A3.27,3.27,0,0,0,38.25,0ZM34.94,54.74c0,9.85-5.71,14.41-13.69,14.41-9.54,0-14.62-6-14.62-19,0-12.76,5.19-18.87,14.62-18.87,9.75,0,13.69,9.12,13.69,9.12Z"/><path class="cls-1" d="M119.43,33a3.11,3.11,0,1,0,0-6.22h-6.74V15.86a3.34,3.34,0,0,0-3.32-3.32,3.42,3.42,0,0,0-3.32,3.32V26.75h-4A3.11,3.11,0,0,0,102,33h4V61.58c0,7.57,4.46,13.06,12.65,13.06a3.11,3.11,0,1,0,0-6.22c-3.52,0-6-2.38-6-6.84V33Z"/><path class="cls-1" d="M149.7,25.3c-8.71,0-14.31,3.62-17.21,8.19a3.18,3.18,0,0,0-.52,1.76,3,3,0,0,0,3,3,3.37,3.37,0,0,0,2.69-1.45c3.22-3.63,6.53-5.28,12-5.28,7.57,0,12.23,4.35,12.23,11.4v2.8H147.31c-11.19,0-18.14,5.49-18.14,14.62,0,9.53,7,14.82,17.94,14.82,6.22,0,12.23-2.59,14.82-7.46v3.73a3.22,3.22,0,0,0,6.43,0V42.92C168.36,32.34,161.72,25.3,149.7,25.3Zm12.23,30.58c0,8.81-6.94,13.27-14.2,13.27-8.09,0-11.82-3.42-11.82-8.81,0-6,4.67-8.82,11.4-8.82h14.62Z"/><path class="cls-2" d="M314.53,45.51c0-7-3.21-20.21-19.8-20.21-13.47,0-21.35,8.91-21.35,24.88,0,17.41,8.6,25,22.39,25,9.23,0,14.62-4.25,16.17-5.81A3.1,3.1,0,0,0,313.08,67a3,3,0,0,0-3-3,2.88,2.88,0,0,0-1.87.63A19.13,19.13,0,0,1,295.77,69c-9.74,0-15.65-6.63-15.65-16.89h30.27C314.53,52.15,314.53,48.52,314.53,45.51Zm-34.41.83c.62-9.23,5.59-15,14.61-15,10.68,0,13.27,7.57,13.27,15Z"/><path class="cls-2" d="M213,64a3.12,3.12,0,0,0-2,.73c-2.38,1.76-6,4.46-12,4.46-9.54,0-14.62-6-14.62-19,0-12.76,5.08-18.87,14.62-18.87,6.84,0,9.64,3.11,11.19,4.87a3.09,3.09,0,0,0,2.49,1.24,2.94,2.94,0,0,0,3-3,3.08,3.08,0,0,0-.73-2c-1.66-2.28-6.74-7.15-16-7.15-13.38,0-21.36,7.87-21.36,24.88s8,25,21.36,25a23.62,23.62,0,0,0,15.65-5.6A3.21,3.21,0,0,0,216.05,67,3,3,0,0,0,213,64Z"/><path class="cls-2" d="M260.83,25.92a3.36,3.36,0,0,0-3.42,3.31V56.29c0,6.74-2.17,12.55-12.65,12.55S232.12,63,232.12,56.29V29.23a3.34,3.34,0,0,0-3.32-3.31,3.27,3.27,0,0,0-3.32,3.31V56.29c0,9.85,3.32,18.87,19.28,18.87s19.29-9,19.29-18.87V29.23A3.25,3.25,0,0,0,260.83,25.92Z"/></svg>